<svg width="40" height="45" viewBox="0 0 40 45" fill="none" xmlns="http://www.w3.org/2000/svg">
<path d="M3.58929 40.5L0 0H39.6964L36.1071 40.5L19.875 45L3.69643 40.5H3.58929Z" fill="#264DE4"/>
<path d="M32.939 37.9333L36.0461 3.32617H19.814V41.5762L32.939 37.9333Z" fill="#2965F1"/>
<path d="M8.23981 18.3156L8.66839 23.2977H19.7577V18.3156H8.18624H8.23981ZM7.81124 13.2263H19.8112V8.24414H7.3291L7.75767 13.2263H7.81124ZM19.8112 31.2263L14.2934 29.7263L13.9184 25.762H8.93624L9.63267 33.5834L19.8112 36.4227V31.2263Z" fill="#EBEBEB"/>
<path d="M19.814 18.3242V23.3064H25.9211L25.3318 29.7349L19.814 31.2349V36.3778L29.9925 33.5385V32.6814C30.0461 32.6814 31.2247 19.6099 31.2247 19.6099L31.3318 18.2706L32.2425 8.19922H19.814V13.1814H26.8318L26.4032 18.2706H19.8675L19.814 18.3242Z" fill="white"/>
</svg>
