<svg width="59" height="45" viewBox="0 0 59 45" fill="none" xmlns="http://www.w3.org/2000/svg">
<g clip-path="url(#clip0_4202_1187)">
<path d="M56.569 19.291C56.4092 19.1574 54.9709 18.0616 51.881 18.0616C51.0819 18.0616 50.2561 18.1418 49.457 18.2755C48.8711 14.1866 45.4883 12.209 45.355 12.1021L44.5292 11.6211L43.9965 12.3961C43.3307 13.4383 42.8245 14.6142 42.5314 15.8168C41.9722 18.1418 42.3183 20.3332 43.4905 22.2039C42.0787 23.0057 39.7879 23.1927 39.3085 23.2194H1.48419C0.498626 23.2194 -0.300478 24.0212 -0.300478 25.0101C-0.353752 28.3238 0.20562 31.6377 1.351 34.7644C2.65622 38.1851 4.6007 40.7238 7.10455 42.274C9.92805 44.011 14.5362 44.9998 19.7304 44.9998C22.0744 44.9998 24.4186 44.786 26.7359 44.3584C29.9589 43.7705 33.0488 42.6481 35.8989 41.0179C38.243 39.655 40.3473 37.9178 42.132 35.8867C45.1419 32.4927 46.9266 28.6979 48.2318 25.3307H48.7645C52.0408 25.3307 54.0653 24.0212 55.184 22.8988C55.9297 22.2039 56.4892 21.3488 56.8889 20.3867L57.1284 19.6918L56.569 19.291Z" fill="#0091E2"/>
<path d="M5.02311 22.1449H10.084C10.3237 22.1449 10.5368 21.9576 10.5368 21.6899V17.1394C10.5368 16.8985 10.3503 16.6843 10.084 16.6843H5.02311C4.78339 16.6843 4.57031 16.8717 4.57031 17.1394V21.6899C4.59695 21.9576 4.78339 22.1449 5.02311 22.1449ZM12.0018 22.1449H17.0626C17.3023 22.1449 17.5154 21.9576 17.5154 21.6899V17.1394C17.5154 16.8985 17.329 16.6843 17.0626 16.6843H12.0018C11.762 16.6843 11.5489 16.8717 11.5489 17.1394V21.6899C11.5756 21.9576 11.762 22.1449 12.0018 22.1449ZM19.1136 22.1449H24.1745C24.414 22.1449 24.6271 21.9576 24.6271 21.6899V17.1394C24.6271 16.8985 24.4408 16.6843 24.1745 16.6843H19.1136C18.8738 16.6843 18.6608 16.8717 18.6608 17.1394V21.6899C18.6608 21.9576 18.8472 22.1449 19.1136 22.1449ZM26.1189 22.1449H31.1796C31.4195 22.1449 31.6325 21.9576 31.6325 21.6899V17.1394C31.6325 16.8985 31.446 16.6843 31.1796 16.6843L26.1189 16.6843C25.8791 16.6843 25.666 16.8717 25.666 17.1394V21.6899C25.666 21.9576 25.8791 22.1449 26.1189 22.1449ZM12.0018 15.6404H17.0626C17.3023 15.6404 17.5154 15.4262 17.5154 15.1853V10.6348C17.5154 10.3939 17.329 10.1798 17.0626 10.1798H12.0018C11.762 10.1798 11.5489 10.3671 11.5489 10.6348V15.1853C11.5756 15.4262 11.762 15.6404 12.0018 15.6404ZM19.1136 15.6404H24.1745C24.414 15.6404 24.6271 15.4262 24.6271 15.1853V10.6348C24.6271 10.3939 24.4408 10.1798 24.1745 10.1798H19.1136C18.8738 10.1798 18.6608 10.3671 18.6608 10.6348V15.1853C18.6608 15.4262 18.8472 15.6404 19.1136 15.6404ZM26.1189 15.6404H31.1796C31.4195 15.6404 31.6325 15.4262 31.6325 15.1853V10.6348C31.6325 10.3939 31.4195 10.1798 31.1796 10.1798H26.1189C25.8791 10.1798 25.666 10.3671 25.666 10.6348V15.1853C25.666 15.4262 25.8791 15.6404 26.1189 15.6404ZM26.1189 9.10905H31.1796C31.4195 9.10905 31.6325 8.92168 31.6325 8.65399V4.1035C31.6325 3.86259 31.4195 3.64844 31.1796 3.64844H26.1189C25.8791 3.64844 25.666 3.83581 25.666 4.1035V8.65399C25.666 8.8949 25.8791 9.10905 26.1189 9.10905ZM33.1774 22.1449H38.2383C38.4779 22.1449 38.691 21.9576 38.691 21.6899V17.1394C38.691 16.8985 38.5046 16.6843 38.2383 16.6843H33.1774C32.9375 16.6843 32.7245 16.8717 32.7245 17.1394V21.6899C32.7512 21.9576 32.9375 22.1449 33.1774 22.1449Z" fill="#0091E2"/>
</g>
<defs>
<clipPath id="clip0_4202_1187">
<rect width="58.3784" height="45" fill="white"/>
</clipPath>
</defs>
</svg>
