<svg width="45" height="45" viewBox="0 0 45 45" fill="none" xmlns="http://www.w3.org/2000/svg">
<path fill-rule="evenodd" clip-rule="evenodd" d="M22.1541 9.43945H41.5387V18.6689H22.1541V9.43945Z" fill="white"/>
<path fill-rule="evenodd" clip-rule="evenodd" d="M4.61539 39.571C2.90816 39.571 1.42085 38.4778 0.622385 36.8564C0.214728 37.6807 -1.77838e-05 38.6174 1.1046e-09 39.571C1.1046e-09 42.5695 2.06631 45.0001 4.61539 45.0001H9.23078V39.571H4.61539Z" fill="#3ECC5F"/>
<path fill-rule="evenodd" clip-rule="evenodd" d="M25.3803 10.8988L41.5387 9.71094V6.9964C41.5387 3.99791 39.4724 1.56731 36.9233 1.56731H16.1541L15.5772 0.391912C15.3205 -0.130637 14.6797 -0.130637 14.4233 0.391912L13.8464 1.56731L13.2695 0.391912C13.0131 -0.130637 12.372 -0.130637 12.1156 0.391912L11.5387 1.56731L10.9618 0.391912C10.7054 -0.130637 10.0643 -0.130637 9.80792 0.391912L9.231 1.56731C9.22592 1.56731 9.22131 1.56812 9.216 1.56812L8.26015 0.444031C7.89784 0.0175765 7.27892 0.212481 7.146 0.795293L6.83007 2.1808L5.63192 1.80293C5.13622 1.64685 4.68322 2.17998 4.81615 2.76279L5.13692 4.17246L3.95953 4.54354C3.46384 4.69989 3.29791 5.4282 3.66045 5.85466L4.6163 6.97902C4.6163 6.98472 4.61561 6.99042 4.61561 6.9964L3.61638 7.67503C3.17215 7.97662 3.17215 8.73072 3.61638 9.0323L4.61561 9.71094L3.61638 10.3896C3.17215 10.6912 3.17215 11.4453 3.61638 11.7468L4.61561 12.4255L3.61638 13.1041C3.17215 13.4057 3.17215 14.1598 3.61638 14.4614L4.61561 15.14L3.61638 15.8187C3.17215 16.1202 3.17215 16.8743 3.61638 17.1759L4.61561 17.8546L3.61638 18.5332C3.17215 18.8348 3.17215 19.5889 3.61638 19.8905L4.61561 20.5691L3.61638 21.2477C3.17215 21.5493 3.17215 22.3034 3.61638 22.605L4.61561 23.2837L3.61638 23.9623C3.17215 24.2639 3.17215 25.018 3.61638 25.3196L4.61561 25.9982L3.61638 26.6768C3.17215 26.9784 3.17215 27.7325 3.61638 28.0341L4.61561 28.7127L3.61638 29.3914C3.17215 29.693 3.17215 30.4471 3.61638 30.7486L4.61561 31.4273L3.61638 32.1059C3.17215 32.4075 3.17215 33.1616 3.61638 33.4632L4.61561 34.1418L3.61638 34.8205C3.17215 35.122 3.17215 35.8761 3.61638 36.1777L4.61561 36.8564L3.61638 37.535C3.17215 37.8366 3.17215 38.5907 3.61638 38.8923L4.61561 39.5709C4.61561 42.5694 6.68192 45 9.231 45H36.9233C39.4724 45 41.5387 42.5694 41.5387 39.5709V17.8546L25.3803 16.6667C24.7565 16.6208 24.1711 16.2969 23.7433 15.7611C23.3154 15.2254 23.0772 14.5179 23.0772 13.7828C23.0772 12.2569 24.0856 10.9941 25.3803 10.8988Z" fill="#3ECC5F"/>
<path fill-rule="evenodd" clip-rule="evenodd" d="M32.3079 44.9998H39.2309V34.1416H32.3079V44.9998Z" fill="#3ECC5F"/>
<path fill-rule="evenodd" clip-rule="evenodd" d="M43.8463 38.2142C43.7957 38.2142 43.7475 38.2243 43.6988 38.2316C43.69 38.1909 43.6817 38.1499 43.672 38.1092C43.9179 37.9882 44.1207 37.7709 44.2458 37.494C44.3709 37.2172 44.4106 36.8979 44.3583 36.5905C44.306 36.283 44.1648 36.0064 43.9587 35.8076C43.7526 35.6087 43.4943 35.4999 43.2278 35.4997C42.9758 35.5008 42.7312 35.5996 42.5318 35.7809C42.5063 35.7503 42.4805 35.7198 42.4545 35.6897C42.6052 35.4565 42.6872 35.1718 42.6878 34.8789C42.6876 34.5662 42.5957 34.2631 42.4275 34.0209C42.2593 33.7788 42.0252 33.6124 41.7647 33.5498C41.5042 33.4873 41.2334 33.5325 40.9979 33.6778C40.7625 33.823 40.577 34.0595 40.4726 34.3471C40.4385 34.3357 40.4041 34.3262 40.3699 34.3159C40.3762 34.2586 40.3847 34.2019 40.3847 34.1424C40.3847 33.7825 40.2632 33.4372 40.0468 33.1827C39.8304 32.9282 39.5369 32.7852 39.2309 32.7852C38.9249 32.7852 38.6314 32.9282 38.415 33.1827C38.1986 33.4372 38.077 33.7825 38.077 34.1424C38.077 34.2019 38.0856 34.2586 38.0918 34.3159C38.0576 34.3262 38.0233 34.3357 37.9891 34.3471C37.8852 34.0589 37.6997 33.8219 37.4641 33.6762C37.2286 33.5305 36.9574 33.4851 36.6967 33.5477C36.4359 33.6103 36.2016 33.777 36.0334 34.0196C35.8653 34.2623 35.7736 34.5658 35.7739 34.8789C35.7739 35.1843 35.8626 35.4628 36.0073 35.6897C35.1495 36.6756 34.6155 38.0495 34.6155 39.5715C34.6155 42.57 36.6818 45.0006 39.2309 45.0006C41.386 45.0006 43.1909 43.2606 43.6988 40.9114C43.7475 40.9187 43.7957 40.9288 43.8463 40.9288C44.1523 40.9288 44.4458 40.7858 44.6622 40.5313C44.8785 40.2767 45.0001 39.9315 45.0001 39.5715C45.0001 39.2115 44.8785 38.8663 44.6622 38.6118C44.4458 38.3572 44.1523 38.2142 43.8463 38.2142Z" fill="#44D860"/>
<path fill-rule="evenodd" clip-rule="evenodd" d="M34.6155 28.7133H41.5386V23.2842H34.6155V28.7133Z" fill="#3ECC5F"/>
<path fill-rule="evenodd" clip-rule="evenodd" d="M43.8461 26.6762C43.9991 26.6762 44.1459 26.6047 44.254 26.4774C44.3622 26.3501 44.423 26.1775 44.423 25.9975C44.423 25.8175 44.3622 25.6449 44.254 25.5177C44.1459 25.3904 43.9991 25.3189 43.8461 25.3189C43.821 25.3189 43.7967 25.324 43.7725 25.3276C43.7679 25.3072 43.764 25.2869 43.7591 25.2665C43.8819 25.2059 43.9831 25.0971 44.0455 24.9587C44.1079 24.8203 44.1278 24.6608 44.1016 24.5072C44.0754 24.3536 44.0049 24.2153 43.902 24.1159C43.7991 24.0164 43.6701 23.9619 43.5369 23.9616C43.4056 23.9616 43.2858 24.0151 43.1889 24.1022C43.1762 24.0868 43.1633 24.0716 43.1501 24.0566C43.2226 23.9434 43.2669 23.8039 43.2669 23.6511C43.2668 23.4947 43.2209 23.3431 43.1367 23.222C43.0526 23.1008 42.9355 23.0176 42.8052 22.9863C42.675 22.9551 42.5395 22.9777 42.4218 23.0504C42.3041 23.1231 42.2113 23.2414 42.1592 23.3853C41.9572 23.3181 41.7483 23.2837 41.5384 23.283C40.2641 23.283 39.2307 24.4986 39.2307 25.9975C39.2307 27.4965 40.2641 28.7121 41.5384 28.7121C41.7539 28.7121 41.9614 28.6746 42.1592 28.6097C42.2113 28.7536 42.3041 28.8719 42.4218 28.9446C42.5395 29.0173 42.675 29.04 42.8052 29.0087C42.9355 28.9775 43.0526 28.8942 43.1367 28.7731C43.2209 28.652 43.2668 28.5004 43.2669 28.344C43.2669 28.1911 43.2226 28.0516 43.1501 27.9384C43.1633 27.9235 43.1762 27.9083 43.1889 27.8928C43.2858 27.98 43.4056 28.0334 43.5369 28.0334C43.6702 28.0334 43.7994 27.9791 43.9025 27.8797C44.0057 27.7803 44.0763 27.6419 44.1025 27.4881C44.1287 27.3343 44.1088 27.1746 44.0462 27.0361C43.9836 26.8977 43.8821 26.789 43.7591 26.7286C43.764 26.7085 43.7679 26.6878 43.7725 26.6675C43.7967 26.671 43.821 26.6762 43.8461 26.6762Z" fill="#44D860"/>
<path fill-rule="evenodd" clip-rule="evenodd" d="M13.8464 10.3892C13.6934 10.3892 13.5466 10.3177 13.4384 10.1904C13.3302 10.0632 13.2694 9.89055 13.2694 9.71056C13.2694 8.58783 12.4931 7.67465 11.5387 7.67465C10.5842 7.67465 9.8079 8.58783 9.8079 9.71056C9.8079 9.89055 9.74712 10.0632 9.63892 10.1904C9.53073 10.3177 9.38399 10.3892 9.23098 10.3892C9.07797 10.3892 8.93122 10.3177 8.82303 10.1904C8.71484 10.0632 8.65405 9.89055 8.65405 9.71056C8.65405 7.83943 9.94798 6.31738 11.5387 6.31738C13.1294 6.31738 14.4233 7.83943 14.4233 9.71056C14.4233 9.89055 14.3625 10.0632 14.2543 10.1904C14.1461 10.3177 13.9994 10.3892 13.8464 10.3892Z" fill="black"/>
<path fill-rule="evenodd" clip-rule="evenodd" d="M23.0769 45.0002H36.9231C39.4722 45.0002 41.5385 42.5696 41.5385 39.5711V20.5693H27.6923C25.1432 20.5693 23.0769 22.9999 23.0769 25.9984V45.0002Z" fill="#FFFF50"/>
<path fill-rule="evenodd" clip-rule="evenodd" d="M38.0817 28.984H26.534C26.4728 28.984 26.4141 28.9554 26.3708 28.9045C26.3275 28.8536 26.3032 28.7846 26.3032 28.7126C26.3032 28.6406 26.3275 28.5715 26.3708 28.5206C26.4141 28.4697 26.4728 28.4411 26.534 28.4411H38.0817C38.1429 28.4411 38.2016 28.4697 38.2448 28.5206C38.2881 28.5715 38.3124 28.6406 38.3124 28.7126C38.3124 28.7846 38.2881 28.8536 38.2448 28.9045C38.2016 28.9554 38.1429 28.984 38.0817 28.984ZM38.0817 34.4131H26.534C26.4728 34.4131 26.4141 34.3845 26.3708 34.3336C26.3275 34.2827 26.3032 34.2137 26.3032 34.1417C26.3032 34.0697 26.3275 34.0006 26.3708 33.9497C26.4141 33.8988 26.4728 33.8702 26.534 33.8702H38.0817C38.1429 33.8702 38.2016 33.8988 38.2448 33.9497C38.2881 34.0006 38.3124 34.0697 38.3124 34.1417C38.3124 34.2137 38.2881 34.2827 38.2448 34.3336C38.2016 34.3845 38.1429 34.4131 38.0817 34.4131ZM38.0817 39.8422H26.534C26.4728 39.8422 26.4141 39.8136 26.3708 39.7627C26.3275 39.7118 26.3032 39.6427 26.3032 39.5707C26.3032 39.4988 26.3275 39.4297 26.3708 39.3788C26.4141 39.3279 26.4728 39.2993 26.534 39.2993H38.0817C38.1429 39.2993 38.2016 39.3279 38.2448 39.3788C38.2881 39.4297 38.3124 39.4988 38.3124 39.5707C38.3124 39.6427 38.2881 39.7118 38.2448 39.7627C38.2016 39.8136 38.1429 39.8422 38.0817 39.8422ZM38.0817 26.32H26.534C26.4728 26.32 26.4141 26.2914 26.3708 26.2405C26.3275 26.1896 26.3032 26.1205 26.3032 26.0485C26.3032 25.9765 26.3275 25.9075 26.3708 25.8566C26.4141 25.8057 26.4728 25.7771 26.534 25.7771H38.0817C38.1429 25.7771 38.2016 25.8057 38.2448 25.8566C38.2881 25.9075 38.3124 25.9765 38.3124 26.0485C38.3124 26.1205 38.2881 26.1896 38.2448 26.2405C38.2016 26.2914 38.1429 26.32 38.0817 26.32ZM38.0817 31.6986H26.534C26.4728 31.6986 26.4141 31.67 26.3708 31.6191C26.3275 31.5682 26.3032 31.4991 26.3032 31.4271C26.3032 31.3551 26.3275 31.2861 26.3708 31.2352C26.4141 31.1843 26.4728 31.1557 26.534 31.1557H38.0817C38.1429 31.1557 38.2016 31.1843 38.2448 31.2352C38.2881 31.2861 38.3124 31.3551 38.3124 31.4271C38.3124 31.4991 38.2881 31.5682 38.2448 31.6191C38.2016 31.67 38.1429 31.6986 38.0817 31.6986ZM38.0817 37.1277H26.534C26.4728 37.1277 26.4141 37.0991 26.3708 37.0482C26.3275 36.9972 26.3032 36.9282 26.3032 36.8562C26.3032 36.7842 26.3275 36.7152 26.3708 36.6643C26.4141 36.6133 26.4728 36.5847 26.534 36.5847H38.0817C38.1429 36.5847 38.2016 36.6133 38.2448 36.6643C38.2881 36.7152 38.3124 36.7842 38.3124 36.8562C38.3124 36.9282 38.2881 36.9972 38.2448 37.0482C38.2016 37.0991 38.1429 37.1277 38.0817 37.1277ZM41.5386 12.0483C41.5358 12.0483 41.5335 12.0466 41.5307 12.0469C40.8177 12.0754 40.4803 12.9145 40.1826 13.6547C39.872 14.4284 39.6317 14.9314 39.2381 14.9162C38.8021 14.8977 38.5529 14.3184 38.2889 13.7055C37.9857 13.0013 37.6395 12.2027 36.9128 12.2326C36.2099 12.2608 35.8714 12.991 35.5727 13.6352C35.255 14.3214 35.0387 14.7386 34.6217 14.7194C34.177 14.7004 33.9407 14.2294 33.6673 13.6843C33.3624 13.0773 33.01 12.3949 32.2974 12.4183C31.6065 12.4462 31.267 13.0657 30.9675 13.6127C30.6507 14.1909 30.4287 14.5432 30.0063 14.5223C29.551 14.5033 29.3159 14.1124 29.0438 13.6599C28.7383 13.1515 28.394 12.576 27.6834 12.6039C27.0077 12.6311 26.6683 13.1387 26.369 13.5861C26.0847 14.0106 25.8627 14.3467 25.393 14.3255C25.3318 14.3229 25.2723 14.349 25.2274 14.3981C25.1826 14.4472 25.1562 14.5152 25.154 14.5872C25.1518 14.6592 25.174 14.7292 25.2157 14.782C25.2574 14.8347 25.3152 14.8658 25.3764 14.8684C26.0727 14.8958 26.4253 14.3798 26.7315 13.9218C27.0031 13.5157 27.2376 13.1653 27.6991 13.1468C28.1436 13.1246 28.352 13.4495 28.6672 13.9734C28.9665 14.4713 29.3062 15.0359 29.9897 15.0649C30.7058 15.0932 31.0504 14.4637 31.3554 13.9066C31.6282 13.4088 31.8636 12.9791 32.3131 12.9609C32.7269 12.9427 32.9521 13.3274 33.2697 13.9601C33.569 14.5565 33.908 15.2322 34.6051 15.262C35.3263 15.2913 35.6745 14.5508 35.978 13.8952C36.2408 13.3284 36.4889 12.7931 36.9285 12.7752C37.3423 12.7638 37.5581 13.2082 37.8772 13.9506C38.1754 14.6436 38.5134 15.4287 39.2214 15.4588L39.2604 15.4596C39.9675 15.4596 40.3031 14.6249 40.6001 13.8868C40.8629 13.2326 41.1117 12.6164 41.5386 12.5912V12.0483Z" fill="black"/>
<path fill-rule="evenodd" clip-rule="evenodd" d="M18.4614 44.9998H27.6922V34.1416H18.4614V44.9998Z" fill="#3ECC5F"/>
<path d="M41.4828 16.8292L23.5339 22.4864C23.2877 22.564 23.1416 22.8617 23.2076 23.1514L24.9616 30.8515C25.0276 31.1412 25.2807 31.313 25.5269 31.2354L43.4757 25.5781C43.722 25.5005 43.8681 25.2028 43.8021 24.9132L42.0481 17.2131C41.9821 16.9234 41.729 16.7516 41.4828 16.8292Z" fill="#D8D8D8"/>
<path d="M28.9508 26.7018L28.3081 26.9044C28.185 26.9432 28.1119 27.092 28.1449 27.2368L28.3171 27.9928C28.3501 28.1376 28.4767 28.2235 28.5998 28.1847L29.2424 27.9821C29.3655 27.9433 29.4386 27.7945 29.4056 27.6497L29.2334 26.8937C29.2004 26.7489 29.0739 26.663 28.9508 26.7018Z" fill="#4A4A4A"/>
<path d="M30.2405 26.2946L29.5979 26.4971C29.4748 26.5359 29.4017 26.6848 29.4347 26.8296L29.6069 27.5855C29.6399 27.7303 29.7664 27.8163 29.8896 27.7775L30.5322 27.5749C30.6553 27.5361 30.7284 27.3873 30.6954 27.2425L30.5232 26.4865C30.4902 26.3417 30.3637 26.2558 30.2405 26.2946Z" fill="#4A4A4A"/>
<path d="M31.5308 25.8883L30.8882 26.0909C30.7651 26.1297 30.692 26.2785 30.725 26.4233L30.8972 27.1793C30.9302 27.3241 31.0567 27.41 31.1798 27.3712L31.8225 27.1687C31.9456 27.1299 32.0186 26.981 31.9857 26.8362L31.8135 26.0803C31.7805 25.9355 31.6539 25.8495 31.5308 25.8883Z" fill="#4A4A4A"/>
<path d="M32.8209 25.4811L32.1782 25.6836C32.0551 25.7225 31.9821 25.8713 32.015 26.0161L32.1872 26.772C32.2202 26.9169 32.3468 27.0028 32.4699 26.964L33.1125 26.7614C33.2356 26.7226 33.3087 26.5738 33.2757 26.429L33.1035 25.673C33.0705 25.5282 32.944 25.4423 32.8209 25.4811Z" fill="#4A4A4A"/>
<path d="M34.1107 25.0748L33.468 25.2774C33.3449 25.3162 33.2719 25.465 33.3048 25.6099L33.477 26.3658C33.51 26.5106 33.6366 26.5965 33.7597 26.5577L34.4023 26.3552C34.5254 26.3164 34.5985 26.1675 34.5655 26.0227L34.3933 25.2668C34.3603 25.122 34.2338 25.036 34.1107 25.0748Z" fill="#4A4A4A"/>
<path d="M35.4007 24.6676L34.7581 24.8702C34.635 24.909 34.5619 25.0578 34.5949 25.2026L34.7671 25.9586C34.8001 26.1034 34.9266 26.1893 35.0497 26.1505L35.6924 25.948C35.8155 25.9092 35.8885 25.7603 35.8555 25.6155L35.6833 24.8596C35.6503 24.7148 35.5238 24.6288 35.4007 24.6676Z" fill="#4A4A4A"/>
<path d="M36.691 24.2623L36.0483 24.4649C35.9252 24.5037 35.8522 24.6525 35.8852 24.7974L36.0574 25.5533C36.0903 25.6981 36.2169 25.784 36.34 25.7452L36.9826 25.5427C37.1057 25.5039 37.1788 25.355 37.1458 25.2102L36.9736 24.4543C36.9406 24.3095 36.8141 24.2235 36.691 24.2623Z" fill="#4A4A4A"/>
<path d="M37.9805 23.8551L37.3379 24.0577C37.2148 24.0965 37.1417 24.2453 37.1747 24.3901L37.3469 25.1461C37.3799 25.2909 37.5064 25.3768 37.6295 25.338L38.2722 25.1355C38.3953 25.0967 38.4684 24.9478 38.4354 24.803L38.2632 24.0471C38.2302 23.9023 38.1036 23.8163 37.9805 23.8551Z" fill="#4A4A4A"/>
<path d="M39.2706 23.4479L38.6279 23.6504C38.5048 23.6892 38.4318 23.8381 38.4648 23.9829L38.637 24.7388C38.6699 24.8837 38.7965 24.9696 38.9196 24.9308L39.5622 24.7282C39.6853 24.6894 39.7584 24.5406 39.7254 24.3958L39.5532 23.6398C39.5202 23.495 39.3937 23.4091 39.2706 23.4479Z" fill="#4A4A4A"/>
<path fill-rule="evenodd" clip-rule="evenodd" d="M24.8821 27.9837L27.6208 27.1205C27.6799 27.1019 27.7429 27.1117 27.7959 27.1476C27.8489 27.1836 27.8876 27.2429 27.9034 27.3125L28.0755 28.0682C28.0914 28.1377 28.0831 28.2118 28.0525 28.2741C28.0219 28.3365 27.9715 28.382 27.9124 28.4006L25.1737 29.2638C25.1146 29.2824 25.0516 29.2727 24.9986 29.2367C24.9456 29.2007 24.9069 29.1414 24.8911 29.0719L24.7189 28.3159C24.7031 28.2464 24.7114 28.1723 24.742 28.1099C24.7726 28.0476 24.823 28.0021 24.8821 27.9835L24.8821 27.9837ZM39.9582 23.2319L42.697 22.3687C42.7562 22.35 42.8191 22.3598 42.8721 22.3958C42.9251 22.4318 42.9638 22.4911 42.9797 22.5606L43.1518 23.3163C43.1676 23.3858 43.1593 23.4599 43.1287 23.5223C43.0981 23.5846 43.0477 23.6301 42.9886 23.6487L40.2496 24.5121C40.1904 24.5307 40.1274 24.5209 40.0744 24.485C40.0214 24.449 39.9828 24.3897 39.9669 24.3201L39.7947 23.5642C39.7789 23.4946 39.7872 23.4206 39.8178 23.3582C39.8484 23.2959 39.8988 23.2504 39.9579 23.2317L39.9582 23.2319Z" fill="#4A4A4A"/>
<path fill-rule="evenodd" clip-rule="evenodd" d="M24.1843 24.92L25.2298 24.5905C25.2889 24.5718 25.3519 24.5816 25.4049 24.6176C25.4579 24.6536 25.4966 24.7129 25.5124 24.7824L25.6845 25.5381C25.7004 25.6076 25.6921 25.6817 25.6615 25.7441C25.6309 25.8064 25.5805 25.8519 25.5214 25.8706L24.4759 26.2001C24.4168 26.2187 24.3538 26.2089 24.3008 26.1729C24.2478 26.1369 24.2091 26.0777 24.1933 26.0081L24.0212 25.2524C24.0053 25.1829 24.0136 25.1088 24.0442 25.0465C24.0748 24.9841 24.1252 24.9386 24.1843 24.92Z" fill="#4A4A4A"/>
<path d="M26.5198 24.1842L25.8772 24.3868C25.7541 24.4256 25.681 24.5744 25.714 24.7192L25.8862 25.4752C25.9192 25.62 26.0457 25.7059 26.1689 25.6671L26.8115 25.4646C26.9346 25.4258 27.0077 25.2769 26.9747 25.1321L26.8025 24.3762C26.7695 24.2314 26.6429 24.1454 26.5198 24.1842Z" fill="#4A4A4A"/>
<path d="M27.8101 23.777L27.1675 23.9795C27.0444 24.0183 26.9713 24.1672 27.0043 24.312L27.1765 25.0679C27.2095 25.2128 27.336 25.2987 27.4591 25.2599L28.1018 25.0573C28.2249 25.0185 28.2979 24.8697 28.265 24.7249L28.0928 23.9689C28.0598 23.8241 27.9332 23.7382 27.8101 23.777Z" fill="#4A4A4A"/>
<path d="M29.0999 23.3717L28.4573 23.5743C28.3342 23.6131 28.2611 23.7619 28.2941 23.9067L28.4663 24.6627C28.4993 24.8075 28.6258 24.8934 28.7489 24.8546L29.3916 24.6521C29.5147 24.6133 29.5877 24.4644 29.5547 24.3196L29.3826 23.5637C29.3496 23.4189 29.223 23.3329 29.0999 23.3717Z" fill="#4A4A4A"/>
<path d="M30.3897 22.9645L29.7471 23.167C29.624 23.2058 29.5509 23.3547 29.5839 23.4995L29.7561 24.2554C29.7891 24.4003 29.9156 24.4862 30.0387 24.4474L30.6814 24.2448C30.8045 24.206 30.8775 24.0572 30.8445 23.9124L30.6723 23.1564C30.6394 23.0116 30.5128 22.9257 30.3897 22.9645Z" fill="#4A4A4A"/>
<path d="M31.68 22.5582L31.0374 22.7608C30.9143 22.7996 30.8412 22.9484 30.8742 23.0933L31.0464 23.8492C31.0794 23.994 31.2059 24.0799 31.329 24.0411L31.9716 23.8386C32.0948 23.7998 32.1678 23.6509 32.1348 23.5061L31.9626 22.7502C31.9296 22.6054 31.8031 22.5194 31.68 22.5582Z" fill="#4A4A4A"/>
<path d="M32.9695 22.151L32.3269 22.3536C32.2038 22.3924 32.1307 22.5412 32.1637 22.686L32.3359 23.442C32.3689 23.5868 32.4955 23.6727 32.6186 23.6339L33.2612 23.4314C33.3843 23.3926 33.4574 23.2437 33.4244 23.0989L33.2522 22.343C33.2192 22.1982 33.0927 22.1122 32.9695 22.151Z" fill="#4A4A4A"/>
<path d="M34.2598 21.7448L33.6172 21.9473C33.4941 21.9861 33.421 22.135 33.454 22.2798L33.6262 23.0357C33.6592 23.1805 33.7857 23.2665 33.9088 23.2277L34.5515 23.0251C34.6746 22.9863 34.7476 22.8375 34.7147 22.6927L34.5425 21.9367C34.5095 21.7919 34.3829 21.706 34.2598 21.7448Z" fill="#4A4A4A"/>
<path d="M35.5496 21.3375L34.907 21.5401C34.7839 21.5789 34.7108 21.7277 34.7438 21.8726L34.916 22.6285C34.949 22.7733 35.0755 22.8592 35.1986 22.8204L35.8413 22.6179C35.9644 22.5791 36.0374 22.4302 36.0045 22.2854L35.8323 21.5295C35.7993 21.3847 35.6727 21.2987 35.5496 21.3375Z" fill="#4A4A4A"/>
<path d="M36.8394 20.9323L36.1968 21.1348C36.0737 21.1736 36.0006 21.3225 36.0336 21.4673L36.2058 22.2232C36.2388 22.368 36.3653 22.454 36.4884 22.4152L37.1311 22.2126C37.2542 22.1738 37.3272 22.025 37.2943 21.8802L37.1221 21.1242C37.0891 20.9794 36.9625 20.8935 36.8394 20.9323Z" fill="#4A4A4A"/>
<path d="M38.1297 20.525L37.4871 20.7276C37.364 20.7664 37.2909 20.9152 37.3239 21.0601L37.4961 21.816C37.5291 21.9608 37.6556 22.0467 37.7787 22.0079L38.4214 21.8054C38.5445 21.7666 38.6175 21.6177 38.5845 21.4729L38.4123 20.717C38.3794 20.5722 38.2528 20.4862 38.1297 20.525Z" fill="#4A4A4A"/>
<path d="M39.4197 20.1178L38.7771 20.3204C38.654 20.3592 38.5809 20.508 38.6139 20.6528L38.7861 21.4088C38.8191 21.5536 38.9456 21.6395 39.0688 21.6007L39.7114 21.3982C39.8345 21.3594 39.9076 21.2105 39.8746 21.0657L39.7024 20.3098C39.6694 20.165 39.5429 20.079 39.4197 20.1178Z" fill="#4A4A4A"/>
<path d="M40.7095 19.7116L40.0669 19.9141C39.9438 19.9529 39.8707 20.1018 39.9037 20.2466L40.0759 21.0025C40.1089 21.1473 40.2354 21.2333 40.3586 21.1945L41.0012 20.9919C41.1243 20.9531 41.1974 20.8043 41.1644 20.6594L40.9922 19.9035C40.9592 19.7587 40.8326 19.6728 40.7095 19.7116Z" fill="#4A4A4A"/>
<path d="M41.9996 19.3053L41.3569 19.5079C41.2338 19.5467 41.1608 19.6955 41.1938 19.8403L41.366 20.5963C41.3989 20.7411 41.5255 20.827 41.6486 20.7882L42.2912 20.5857C42.4143 20.5469 42.4874 20.398 42.4544 20.2532L42.2822 19.4973C42.2492 19.3525 42.1227 19.2665 41.9996 19.3053Z" fill="#4A4A4A"/>
<path fill-rule="evenodd" clip-rule="evenodd" d="M41.9602 19.1347L40.9145 19.4643C40.8554 19.4829 40.7924 19.4732 40.7394 19.4372C40.6864 19.4012 40.6478 19.3419 40.6319 19.2723L40.4597 18.5164C40.4439 18.4469 40.4522 18.3728 40.4828 18.3104C40.5134 18.2481 40.5638 18.2026 40.6229 18.1839L41.6685 17.8544C41.7277 17.8357 41.7907 17.8455 41.8437 17.8815C41.8967 17.9175 41.9353 17.9768 41.9512 18.0463L42.1234 18.8022C42.1392 18.8718 42.1309 18.9459 42.1003 19.0082C42.0697 19.0706 42.0193 19.1161 41.9602 19.1347Z" fill="#4A4A4A"/>
<path d="M39.6247 19.8705L40.2673 19.6679C40.3904 19.6291 40.4635 19.4803 40.4305 19.3355L40.2583 18.5795C40.2253 18.4347 40.0988 18.3488 39.9757 18.3876L39.333 18.5901C39.2099 18.6289 39.1369 18.7778 39.1699 18.9226L39.3421 19.6785C39.375 19.8233 39.5016 19.9093 39.6247 19.8705Z" fill="#4A4A4A"/>
<path d="M38.3347 20.2777L38.9773 20.0751C39.1004 20.0363 39.1735 19.8875 39.1405 19.7427L38.9683 18.9867C38.9353 18.8419 38.8087 18.756 38.6856 18.7948L38.043 18.9973C37.9199 19.0361 37.8468 19.185 37.8798 19.3298L38.052 20.0857C38.085 20.2306 38.2115 20.3165 38.3347 20.2777Z" fill="#4A4A4A"/>
<path d="M37.0446 20.6839L37.6872 20.4814C37.8104 20.4426 37.8834 20.2937 37.8504 20.1489L37.6782 19.393C37.6452 19.2482 37.5187 19.1622 37.3956 19.201L36.753 19.4036C36.6299 19.4424 36.5568 19.5912 36.5898 19.7361L36.762 20.492C36.795 20.6368 36.9215 20.7227 37.0446 20.6839Z" fill="#4A4A4A"/>
<path d="M35.7546 21.0902L36.3972 20.8876C36.5203 20.8488 36.5934 20.7 36.5604 20.5552L36.3882 19.7992C36.3552 19.6544 36.2287 19.5685 36.1056 19.6073L35.4629 19.8098C35.3398 19.8486 35.2668 19.9975 35.2997 20.1423L35.4719 20.8982C35.5049 21.0431 35.6315 21.129 35.7546 21.0902Z" fill="#4A4A4A"/>
<path d="M34.465 21.4964L35.1077 21.2939C35.2308 21.2551 35.3038 21.1062 35.2708 20.9614L35.0986 20.2055C35.0657 20.0607 34.9391 19.9747 34.816 20.0135L34.1734 20.2161C34.0503 20.2549 33.9772 20.4037 34.0102 20.5486L34.1824 21.3045C34.2154 21.4493 34.3419 21.5352 34.465 21.4964Z" fill="#4A4A4A"/>
<path d="M33.175 21.9037L33.8176 21.7011C33.9407 21.6623 34.0138 21.5135 33.9808 21.3687L33.8086 20.6127C33.7756 20.4679 33.6491 20.382 33.526 20.4208L32.8833 20.6233C32.7602 20.6621 32.6872 20.811 32.7202 20.9558L32.8923 21.7117C32.9253 21.8565 33.0519 21.9425 33.175 21.9037Z" fill="#4A4A4A"/>
<path d="M31.8849 22.3099L32.5276 22.1074C32.6507 22.0686 32.7237 21.9197 32.6908 21.7749L32.5186 21.019C32.4856 20.8742 32.359 20.7882 32.2359 20.827L31.5933 21.0296C31.4702 21.0684 31.3971 21.2172 31.4301 21.362L31.6023 22.118C31.6353 22.2628 31.7618 22.3487 31.8849 22.3099Z" fill="#4A4A4A"/>
<path d="M30.5951 22.7171L31.2378 22.5146C31.3609 22.4758 31.434 22.3269 31.401 22.1821L31.2288 21.4262C31.1958 21.2814 31.0692 21.1954 30.9461 21.2342L30.3035 21.4368C30.1804 21.4756 30.1073 21.6245 30.1403 21.7693L30.3125 22.5252C30.3455 22.67 30.472 22.7559 30.5951 22.7171Z" fill="#4A4A4A"/>
<path d="M29.3049 23.1234L29.9475 22.9208C30.0706 22.882 30.1437 22.7332 30.1107 22.5884L29.9385 21.8324C29.9055 21.6876 29.779 21.6017 29.6559 21.6405L29.0132 21.8431C28.8901 21.8819 28.8171 22.0307 28.85 22.1755L29.0222 22.9314C29.0552 23.0763 29.1818 23.1622 29.3049 23.1234Z" fill="#4A4A4A"/>
<path d="M28.0151 23.5296L28.6577 23.3271C28.7808 23.2883 28.8539 23.1394 28.8209 22.9946L28.6487 22.2387C28.6157 22.0939 28.4892 22.0079 28.3661 22.0467L27.7234 22.2493C27.6003 22.2881 27.5273 22.437 27.5602 22.5818L27.7324 23.3377C27.7654 23.4825 27.892 23.5684 28.0151 23.5296Z" fill="#4A4A4A"/>
<path d="M26.725 23.9359L27.3677 23.7333C27.4908 23.6945 27.5638 23.5457 27.5308 23.4009L27.3587 22.6449C27.3257 22.5001 27.1991 22.4142 27.076 22.453L26.4334 22.6556C26.3103 22.6944 26.2372 22.8432 26.2702 22.988L26.4424 23.7439C26.4754 23.8888 26.6019 23.9747 26.725 23.9359Z" fill="#4A4A4A"/>
<path d="M25.435 24.3431L26.0776 24.1406C26.2007 24.1018 26.2738 23.9529 26.2408 23.8081L26.0686 23.0522C26.0356 22.9074 25.9091 22.8214 25.786 22.8602L25.1433 23.0628C25.0202 23.1016 24.9472 23.2504 24.9802 23.3952L25.1524 24.1512C25.1853 24.296 25.3119 24.3819 25.435 24.3431Z" fill="#4A4A4A"/>
<path d="M24.1452 24.7494L24.7878 24.5468C24.9109 24.508 24.984 24.3592 24.951 24.2144L24.7788 23.4584C24.7458 23.3136 24.6193 23.2277 24.4962 23.2665L23.8535 23.469C23.7304 23.5078 23.6574 23.6567 23.6904 23.8015L23.8626 24.5574C23.8956 24.7022 24.0221 24.7882 24.1452 24.7494Z" fill="#4A4A4A"/>
<path d="M39.6247 19.8705L40.2673 19.6679C40.3904 19.6291 40.4635 19.4803 40.4305 19.3355L40.2583 18.5795C40.2253 18.4347 40.0988 18.3488 39.9757 18.3876L39.333 18.5901C39.2099 18.6289 39.1369 18.7778 39.1699 18.9226L39.3421 19.6785C39.375 19.8233 39.5016 19.9093 39.6247 19.8705Z" fill="#4A4A4A"/>
<path d="M38.3347 20.2777L38.9773 20.0751C39.1004 20.0363 39.1735 19.8875 39.1405 19.7427L38.9683 18.9867C38.9353 18.8419 38.8087 18.756 38.6856 18.7948L38.043 18.9973C37.9199 19.0361 37.8468 19.185 37.8798 19.3298L38.052 20.0857C38.085 20.2306 38.2115 20.3165 38.3347 20.2777Z" fill="#4A4A4A"/>
<path d="M37.0446 20.6839L37.6872 20.4814C37.8104 20.4426 37.8834 20.2937 37.8504 20.1489L37.6782 19.393C37.6452 19.2482 37.5187 19.1622 37.3956 19.201L36.753 19.4036C36.6299 19.4424 36.5568 19.5912 36.5898 19.7361L36.762 20.492C36.795 20.6368 36.9215 20.7227 37.0446 20.6839Z" fill="#4A4A4A"/>
<path d="M35.7546 21.0902L36.3972 20.8876C36.5203 20.8488 36.5934 20.7 36.5604 20.5552L36.3882 19.7992C36.3552 19.6544 36.2287 19.5685 36.1056 19.6073L35.4629 19.8098C35.3398 19.8486 35.2668 19.9975 35.2997 20.1423L35.4719 20.8982C35.5049 21.0431 35.6315 21.129 35.7546 21.0902Z" fill="#4A4A4A"/>
<path d="M34.465 21.4964L35.1077 21.2939C35.2308 21.2551 35.3038 21.1062 35.2708 20.9614L35.0986 20.2055C35.0657 20.0607 34.9391 19.9747 34.816 20.0135L34.1734 20.2161C34.0503 20.2549 33.9772 20.4037 34.0102 20.5486L34.1824 21.3045C34.2154 21.4493 34.3419 21.5352 34.465 21.4964Z" fill="#4A4A4A"/>
<path d="M33.175 21.9037L33.8176 21.7011C33.9407 21.6623 34.0138 21.5135 33.9808 21.3687L33.8086 20.6127C33.7756 20.4679 33.6491 20.382 33.526 20.4208L32.8833 20.6233C32.7602 20.6621 32.6872 20.811 32.7202 20.9558L32.8923 21.7117C32.9253 21.8565 33.0519 21.9425 33.175 21.9037Z" fill="#4A4A4A"/>
<path d="M31.8849 22.3099L32.5276 22.1074C32.6507 22.0686 32.7237 21.9197 32.6908 21.7749L32.5186 21.019C32.4856 20.8742 32.359 20.7882 32.2359 20.827L31.5933 21.0296C31.4702 21.0684 31.3971 21.2172 31.4301 21.362L31.6023 22.118C31.6353 22.2628 31.7618 22.3487 31.8849 22.3099Z" fill="#4A4A4A"/>
<path d="M30.5951 22.7171L31.2378 22.5146C31.3609 22.4758 31.434 22.3269 31.401 22.1821L31.2288 21.4262C31.1958 21.2814 31.0692 21.1954 30.9461 21.2342L30.3035 21.4368C30.1804 21.4756 30.1073 21.6245 30.1403 21.7693L30.3125 22.5252C30.3455 22.67 30.472 22.7559 30.5951 22.7171Z" fill="#4A4A4A"/>
<path d="M29.3049 23.1234L29.9475 22.9208C30.0706 22.882 30.1437 22.7332 30.1107 22.5884L29.9385 21.8324C29.9055 21.6876 29.779 21.6017 29.6559 21.6405L29.0132 21.8431C28.8901 21.8819 28.8171 22.0307 28.85 22.1755L29.0222 22.9314C29.0552 23.0763 29.1818 23.1622 29.3049 23.1234Z" fill="#4A4A4A"/>
<path d="M28.0151 23.5296L28.6577 23.3271C28.7808 23.2883 28.8539 23.1394 28.8209 22.9946L28.6487 22.2387C28.6157 22.0939 28.4892 22.0079 28.3661 22.0467L27.7234 22.2493C27.6003 22.2881 27.5273 22.437 27.5602 22.5818L27.7324 23.3377C27.7654 23.4825 27.892 23.5684 28.0151 23.5296Z" fill="#4A4A4A"/>
<path d="M26.725 23.9359L27.3677 23.7333C27.4908 23.6945 27.5638 23.5457 27.5308 23.4009L27.3587 22.6449C27.3257 22.5001 27.1991 22.4142 27.076 22.453L26.4334 22.6556C26.3103 22.6944 26.2372 22.8432 26.2702 22.988L26.4424 23.7439C26.4754 23.8888 26.6019 23.9747 26.725 23.9359Z" fill="#4A4A4A"/>
<path d="M25.435 24.3431L26.0776 24.1406C26.2007 24.1018 26.2738 23.9529 26.2408 23.8081L26.0686 23.0522C26.0356 22.9074 25.9091 22.8214 25.786 22.8602L25.1433 23.0628C25.0202 23.1016 24.9472 23.2504 24.9802 23.3952L25.1524 24.1512C25.1853 24.296 25.3119 24.3819 25.435 24.3431Z" fill="#4A4A4A"/>
<path d="M24.1452 24.7494L24.7878 24.5468C24.9109 24.508 24.984 24.3592 24.951 24.2144L24.7788 23.4584C24.7458 23.3136 24.6193 23.2277 24.4962 23.2665L23.8535 23.469C23.7304 23.5078 23.6574 23.6567 23.6904 23.8015L23.8626 24.5574C23.8956 24.7022 24.0221 24.7882 24.1452 24.7494Z" fill="#4A4A4A"/>
<path fill-rule="evenodd" clip-rule="evenodd" d="M24.5298 26.4376L26.0188 25.9682C26.0779 25.9496 26.1409 25.9594 26.1939 25.9954C26.2469 26.0314 26.2856 26.0906 26.3014 26.1602L26.4736 26.9161C26.4895 26.9857 26.4812 27.0598 26.4506 27.1221C26.42 27.1845 26.3696 27.2299 26.3105 27.2486L24.8214 27.7179C24.7623 27.7365 24.6993 27.7268 24.6463 27.6908C24.5933 27.6548 24.5546 27.5955 24.5388 27.526L24.3667 26.7703C24.3508 26.7007 24.3591 26.6266 24.3897 26.5643C24.4203 26.5019 24.4707 26.4565 24.5299 26.4378L24.5298 26.4376Z" fill="#4A4A4A"/>
<path d="M27.3489 25.5495L26.7063 25.752C26.5832 25.7908 26.5101 25.9397 26.5431 26.0845L26.7153 26.8404C26.7483 26.9852 26.8748 27.0712 26.998 27.0324L27.6406 26.8298C27.7637 26.791 27.8368 26.6422 27.8038 26.4973L27.6316 25.7414C27.5986 25.5966 27.4721 25.5107 27.3489 25.5495Z" fill="#4A4A4A"/>
<path d="M28.6392 25.1432L27.9966 25.3458C27.8735 25.3846 27.8004 25.5334 27.8334 25.6782L28.0056 26.4342C28.0386 26.579 28.1651 26.6649 28.2882 26.6261L28.9309 26.4236C29.054 26.3847 29.127 26.2359 29.0941 26.0911L28.9219 25.3352C28.8889 25.1903 28.7623 25.1044 28.6392 25.1432Z" fill="#4A4A4A"/>
<path d="M29.929 24.736L29.2864 24.9385C29.1633 24.9773 29.0902 25.1262 29.1232 25.271L29.2954 26.0269C29.3284 26.1717 29.4549 26.2577 29.578 26.2189L30.2207 26.0163C30.3438 25.9775 30.4168 25.8287 30.3838 25.6839L30.2117 24.9279C30.1787 24.7831 30.0521 24.6972 29.929 24.736Z" fill="#4A4A4A"/>
<path d="M31.2193 24.3307L30.5767 24.5333C30.4536 24.5721 30.3805 24.7209 30.4135 24.8657L30.5857 25.6217C30.6187 25.7665 30.7452 25.8524 30.8683 25.8136L31.511 25.6111C31.6341 25.5722 31.7071 25.4234 31.6741 25.2786L31.5019 24.5227C31.469 24.3778 31.3424 24.2919 31.2193 24.3307Z" fill="#4A4A4A"/>
<path d="M32.5091 23.9235L31.8665 24.126C31.7434 24.1648 31.6703 24.3137 31.7033 24.4585L31.8755 25.2144C31.9085 25.3592 32.035 25.4452 32.1581 25.4064L32.8007 25.2038C32.9239 25.165 32.9969 25.0162 32.9639 24.8714L32.7917 24.1154C32.7587 23.9706 32.6322 23.8847 32.5091 23.9235Z" fill="#4A4A4A"/>
<path d="M33.7991 23.5163L33.1565 23.7188C33.0334 23.7576 32.9603 23.9065 32.9933 24.0513L33.1655 24.8072C33.1985 24.952 33.325 25.038 33.4481 24.9992L34.0908 24.7966C34.2139 24.7578 34.287 24.6089 34.254 24.4641L34.0818 23.7082C34.0488 23.5634 33.9222 23.4775 33.7991 23.5163Z" fill="#4A4A4A"/>
<path d="M35.0889 23.11L34.4463 23.3126C34.3232 23.3514 34.2501 23.5002 34.2831 23.645L34.4553 24.401C34.4883 24.5458 34.6148 24.6317 34.7379 24.5929L35.3806 24.3903C35.5037 24.3515 35.5767 24.2027 35.5438 24.0579L35.3716 23.3019C35.3386 23.1571 35.212 23.0712 35.0889 23.11Z" fill="#4A4A4A"/>
<path d="M36.3787 22.7038L35.7361 22.9063C35.613 22.9451 35.5399 23.094 35.5729 23.2388L35.7451 23.9947C35.7781 24.1395 35.9046 24.2255 36.0277 24.1867L36.6704 23.9841C36.7935 23.9453 36.8665 23.7964 36.8336 23.6516L36.6614 22.8957C36.6284 22.7509 36.5018 22.665 36.3787 22.7038Z" fill="#4A4A4A"/>
<path d="M37.6685 22.2975L37.0259 22.5001C36.9028 22.5389 36.8297 22.6877 36.8627 22.8325L37.0349 23.5885C37.0679 23.7333 37.1944 23.8192 37.3175 23.7804L37.9602 23.5778C38.0833 23.539 38.1563 23.3902 38.1234 23.2454L37.9512 22.4894C37.9182 22.3446 37.7916 22.2587 37.6685 22.2975Z" fill="#4A4A4A"/>
<path d="M38.9586 21.8903L38.3159 22.0928C38.1928 22.1316 38.1198 22.2805 38.1527 22.4253L38.3249 23.1812C38.3579 23.326 38.4845 23.412 38.6076 23.3732L39.2502 23.1706C39.3733 23.1318 39.4464 22.983 39.4134 22.8382L39.2412 22.0822C39.2082 21.9374 39.0817 21.8515 38.9586 21.8903Z" fill="#4A4A4A"/>
<path d="M40.2486 21.484L39.606 21.6866C39.4829 21.7254 39.4098 21.8742 39.4428 22.019L39.615 22.775C39.648 22.9198 39.7745 23.0057 39.8976 22.9669L40.5403 22.7644C40.6634 22.7256 40.7364 22.5767 40.7034 22.4319L40.5312 21.676C40.4982 21.5312 40.3717 21.4452 40.2486 21.484Z" fill="#4A4A4A"/>
<path fill-rule="evenodd" clip-rule="evenodd" d="M40.9368 21.2676L42.3451 20.8237C42.4042 20.805 42.4672 20.8148 42.5202 20.8508C42.5732 20.8868 42.6119 20.9461 42.6277 21.0156L42.7999 21.7716C42.8157 21.8411 42.8074 21.9152 42.7768 21.9775C42.7462 22.0399 42.6958 22.0854 42.6367 22.104L41.2282 22.548C41.1691 22.5666 41.1061 22.5569 41.0531 22.5209C41.0001 22.4849 40.9614 22.4256 40.9455 22.356L40.7734 21.6004C40.7576 21.5308 40.7659 21.4567 40.7965 21.3944C40.8271 21.332 40.8775 21.2865 40.9366 21.2679L40.9368 21.2676Z" fill="#4A4A4A"/>
<path d="M25.8856 29.3649L25.2429 29.5674C25.1198 29.6062 25.0468 29.7551 25.0797 29.8999L25.2519 30.6558C25.2849 30.8006 25.4115 30.8866 25.5346 30.8478L26.1772 30.6452C26.3003 30.6064 26.3734 30.4576 26.3404 30.3128L26.1682 29.5568C26.1352 29.412 26.0087 29.3261 25.8856 29.3649Z" fill="#4A4A4A"/>
<path d="M27.1756 28.9586L26.533 29.1612C26.4099 29.2 26.3368 29.3488 26.3698 29.4937L26.542 30.2496C26.575 30.3944 26.7015 30.4803 26.8246 30.4415L27.4673 30.239C27.5904 30.2002 27.6634 30.0513 27.6304 29.9065L27.4582 29.1506C27.4253 29.0058 27.2987 28.9198 27.1756 28.9586Z" fill="#4A4A4A"/>
<path d="M28.4654 28.5524L27.8228 28.7549C27.6997 28.7937 27.6266 28.9426 27.6596 29.0874L27.8318 29.8433C27.8648 29.9881 27.9913 30.0741 28.1144 30.0353L28.757 29.8327C28.8802 29.7939 28.9532 29.6451 28.9202 29.5003L28.748 28.7443C28.715 28.5995 28.5885 28.5136 28.4654 28.5524Z" fill="#4A4A4A"/>
<path d="M29.7554 28.1452L29.1128 28.3477C28.9897 28.3865 28.9166 28.5354 28.9496 28.6802L29.1218 29.4361C29.1548 29.5809 29.2813 29.6669 29.4044 29.6281L30.0471 29.4255C30.1702 29.3867 30.2433 29.2379 30.2103 29.093L30.0381 28.3371C30.0051 28.1923 29.8785 28.1064 29.7554 28.1452Z" fill="#4A4A4A"/>
<path fill-rule="evenodd" clip-rule="evenodd" d="M30.4026 27.9415L36.6083 25.9855C36.6674 25.9669 36.7304 25.9766 36.7834 26.0126C36.8364 26.0486 36.8751 26.1079 36.8909 26.1774L37.0632 26.9336C37.079 27.0032 37.0707 27.0773 37.0401 27.1396C37.0095 27.202 36.9591 27.2475 36.9 27.2661L30.6943 29.2221C30.6352 29.2407 30.5722 29.2309 30.5192 29.195C30.4662 29.159 30.4275 29.0997 30.4117 29.0301L30.2394 28.2739C30.2236 28.2044 30.2319 28.1303 30.2625 28.0679C30.2931 28.0056 30.3435 27.9601 30.4026 27.9415ZM37.2554 25.7815L38.0594 25.5281C38.1185 25.5095 38.1815 25.5192 38.2345 25.5552C38.2875 25.5912 38.3262 25.6505 38.3421 25.7201L38.5143 26.4763C38.5302 26.5458 38.5219 26.6199 38.4913 26.6822C38.4607 26.7446 38.4103 26.7901 38.3511 26.8087L37.5471 27.0621C37.488 27.0808 37.425 27.071 37.372 27.035C37.319 26.999 37.2803 26.9397 37.2645 26.8702L37.0922 26.114C37.0764 26.0445 37.0847 25.9704 37.1153 25.908C37.1459 25.8457 37.1963 25.8002 37.2554 25.7815Z" fill="#4A4A4A"/>
<path d="M39.3492 25.1217L38.7065 25.3243C38.5834 25.3631 38.5104 25.5119 38.5434 25.6567L38.7156 26.4127C38.7486 26.5575 38.8751 26.6434 38.9982 26.6046L39.6408 26.4021C39.7639 26.3633 39.837 26.2144 39.804 26.0696L39.6318 25.3137C39.5988 25.1689 39.4723 25.0829 39.3492 25.1217Z" fill="#4A4A4A"/>
<path d="M40.6395 24.7145L39.9968 24.917C39.8737 24.9558 39.8007 25.1047 39.8337 25.2495L40.0058 26.0054C40.0388 26.1503 40.1654 26.2362 40.2885 26.1974L40.9311 25.9948C41.0542 25.956 41.1273 25.8072 41.0943 25.6624L40.9221 24.9064C40.8891 24.7616 40.7626 24.6757 40.6395 24.7145Z" fill="#4A4A4A"/>
<path d="M43.0579 23.9528L42.4153 24.1553C42.2922 24.1941 42.2191 24.343 42.2521 24.4878L42.4243 25.2437C42.4573 25.3885 42.5838 25.4745 42.7069 25.4357L43.3496 25.2331C43.4727 25.1943 43.5457 25.0455 43.5128 24.9007L43.3406 24.1447C43.3076 23.9999 43.181 23.914 43.0579 23.9528Z" fill="#4A4A4A"/>
<path d="M41.1066 25.1517L41.0421 24.8685C41.0263 24.7989 41.0346 24.7248 41.0652 24.6625C41.0958 24.6001 41.1462 24.5547 41.2053 24.536L41.8479 24.3335C41.907 24.3148 41.97 24.3246 42.023 24.3606C42.076 24.3966 42.1147 24.4559 42.1306 24.5254L42.1951 24.8086L41.1066 25.1517Z" fill="#4A4A4A"/>
<path d="M42.2391 24.9987L42.3036 25.2819C42.3194 25.3515 42.3111 25.4255 42.2805 25.4879C42.2499 25.5502 42.1995 25.5957 42.1404 25.6144L41.4978 25.8169C41.4387 25.8356 41.3757 25.8258 41.3227 25.7898C41.2697 25.7538 41.231 25.6945 41.2151 25.625L41.1506 25.3418L42.2391 24.9987Z" fill="#4A4A4A"/>
<path d="M41.4427 17.1429L23.7865 22.708C23.653 22.7501 23.5737 22.9116 23.6095 23.0687C23.6453 23.2258 23.7826 23.319 23.9161 23.2769L41.5723 17.7119C41.7059 17.6698 41.7852 17.5083 41.7494 17.3512C41.7136 17.1941 41.5763 17.1008 41.4427 17.1429Z" fill="#4A4A4A"/>
<path opacity="0.136" d="M24.866 22.4695L24.1712 22.6885C24.0822 22.7165 24.0293 22.8241 24.0532 22.9288L24.0533 22.9291C24.0771 23.0338 24.1686 23.0959 24.2576 23.0679L24.9524 22.8489C25.0414 22.8208 25.0942 22.7132 25.0704 22.6085L25.0703 22.6082C25.0465 22.5035 24.955 22.4414 24.866 22.4695Z" fill="#D8D8D8"/>
<path opacity="0.136" d="M26.2578 22.03L25.563 22.249C25.474 22.2771 25.4212 22.3847 25.445 22.4894L25.4451 22.4896C25.4689 22.5943 25.5604 22.6565 25.6494 22.6284L26.3442 22.4094C26.4332 22.3814 26.4861 22.2738 26.4622 22.1691L26.4622 22.1688C26.4383 22.0641 26.3468 22.002 26.2578 22.03Z" fill="#D8D8D8"/>
<path opacity="0.136" d="M27.3286 21.6931L26.6338 21.9121C26.5448 21.9401 26.492 22.0478 26.5158 22.1525L26.5159 22.1527C26.5397 22.2574 26.6312 22.3196 26.7202 22.2915L27.415 22.0725C27.504 22.0445 27.5569 21.9368 27.533 21.8321L27.533 21.8319C27.5091 21.7272 27.4176 21.665 27.3286 21.6931Z" fill="#D8D8D8"/>
<path opacity="0.136" d="M28.3994 21.3552L27.7046 21.5742C27.6156 21.6023 27.5628 21.7099 27.5866 21.8146L27.5867 21.8148C27.6105 21.9195 27.702 21.9817 27.791 21.9536L28.4858 21.7346C28.5748 21.7066 28.6277 21.5989 28.6038 21.4943L28.6038 21.494C28.5799 21.3893 28.4884 21.3272 28.3994 21.3552Z" fill="#D8D8D8"/>
<path opacity="0.136" d="M29.4702 21.0183L28.7754 21.2373C28.6864 21.2653 28.6336 21.373 28.6574 21.4777L28.6575 21.4779C28.6813 21.5826 28.7728 21.6448 28.8618 21.6167L29.5566 21.3977C29.6457 21.3697 29.6985 21.262 29.6746 21.1573L29.6746 21.1571C29.6507 21.0524 29.5592 20.9902 29.4702 21.0183Z" fill="#D8D8D8"/>
<path opacity="0.136" d="M30.8084 20.5964L30.1136 20.8154C30.0245 20.8435 29.9717 20.9511 29.9956 21.0558L29.9956 21.056C30.0195 21.1607 30.111 21.2229 30.2 21.1948L30.8948 20.9758C30.9838 20.9478 31.0366 20.8402 31.0128 20.7355L31.0127 20.7352C30.9888 20.6305 30.8974 20.5684 30.8084 20.5964Z" fill="#D8D8D8"/>
<path opacity="0.136" d="M31.8792 20.2585L31.1844 20.4775C31.0953 20.5056 31.0425 20.6132 31.0664 20.7179L31.0664 20.7182C31.0903 20.8229 31.1818 20.885 31.2708 20.8569L31.9656 20.6379C32.0546 20.6099 32.1074 20.5023 32.0836 20.3976L32.0835 20.3973C32.0596 20.2926 31.9682 20.2305 31.8792 20.2585Z" fill="#D8D8D8"/>
<path opacity="0.136" d="M32.95 19.9206L32.2552 20.1396C32.1661 20.1677 32.1133 20.2753 32.1372 20.38L32.1372 20.3803C32.1611 20.485 32.2526 20.5471 32.3416 20.519L33.0364 20.3001C33.1254 20.272 33.1782 20.1644 33.1544 20.0597L33.1543 20.0594C33.1304 19.9547 33.039 19.8926 32.95 19.9206Z" fill="#D8D8D8"/>
<path opacity="0.136" d="M34.0208 19.5837L33.326 19.8027C33.2369 19.8308 33.1841 19.9384 33.208 20.0431L33.208 20.0434C33.2319 20.1481 33.3234 20.2102 33.4124 20.1821L34.1072 19.9631C34.1962 19.9351 34.249 19.8275 34.2252 19.7228L34.2251 19.7225C34.2012 19.6178 34.1098 19.5557 34.0208 19.5837Z" fill="#D8D8D8"/>
<path opacity="0.136" d="M35.3591 19.1619L34.6643 19.3808C34.5753 19.4089 34.5225 19.5165 34.5464 19.6212L34.5464 19.6215C34.5703 19.7262 34.6618 19.7883 34.7508 19.7603L35.4456 19.5413C35.5346 19.5132 35.5874 19.4056 35.5635 19.3009L35.5635 19.3006C35.5396 19.1959 35.4481 19.1338 35.3591 19.1619Z" fill="#D8D8D8"/>
<path opacity="0.136" d="M36.4299 18.8249L35.7351 19.0439C35.6461 19.072 35.5933 19.1796 35.6172 19.2843L35.6172 19.2846C35.6411 19.3893 35.7326 19.4514 35.8216 19.4233L36.5164 19.2043C36.6054 19.1763 36.6582 19.0687 36.6343 18.964L36.6343 18.9637C36.6104 18.859 36.5189 18.7969 36.4299 18.8249Z" fill="#D8D8D8"/>
<path opacity="0.136" d="M37.501 18.487L36.8062 18.706C36.7172 18.7341 36.6644 18.8417 36.6882 18.9464L36.6883 18.9467C36.7121 19.0514 36.8036 19.1135 36.8926 19.0855L37.5874 18.8665C37.6764 18.8384 37.7292 18.7308 37.7054 18.6261L37.7053 18.6258C37.6815 18.5211 37.59 18.459 37.501 18.487Z" fill="#D8D8D8"/>
<path opacity="0.136" d="M38.8389 18.0652L38.1441 18.2842C38.0551 18.3122 38.0022 18.4198 38.0261 18.5245L38.0262 18.5248C38.05 18.6295 38.1415 18.6916 38.2305 18.6636L38.9253 18.4446C39.0143 18.4165 39.0671 18.3089 39.0433 18.2042L39.0432 18.204C39.0194 18.0993 38.9279 18.0371 38.8389 18.0652Z" fill="#D8D8D8"/>
<path opacity="0.136" d="M39.9094 17.7283L39.2146 17.9473C39.1256 17.9753 39.0728 18.0829 39.0966 18.1876L39.0967 18.1879C39.1206 18.2926 39.212 18.3547 39.3011 18.3267L39.9959 18.1077C40.0849 18.0796 40.1377 17.972 40.1138 17.8673L40.1138 17.867C40.0899 17.7623 39.9984 17.7002 39.9094 17.7283Z" fill="#D8D8D8"/>
<path opacity="0.136" d="M40.9805 17.3904L40.2857 17.6094C40.1967 17.6374 40.1438 17.745 40.1677 17.8497L40.1678 17.85C40.1916 17.9547 40.2831 18.0168 40.3721 17.9888L41.0669 17.7698C41.1559 17.7417 41.2087 17.6341 41.1849 17.5294L41.1848 17.5291C41.161 17.4244 41.0695 17.3623 40.9805 17.3904Z" fill="#D8D8D8"/>
<path fill-rule="evenodd" clip-rule="evenodd" d="M32.3077 38.2142C32.2571 38.2142 32.2089 38.2243 32.1602 38.2316C32.1515 38.1909 32.1431 38.1499 32.1335 38.1092C32.3794 37.9882 32.5821 37.7709 32.7072 37.494C32.8323 37.2172 32.8721 36.8979 32.8197 36.5905C32.7674 36.283 32.6262 36.0064 32.4201 35.8076C32.214 35.6087 31.9558 35.4999 31.6892 35.4997C31.4372 35.5008 31.1926 35.5996 30.9932 35.7809C30.9677 35.7503 30.9419 35.7198 30.9159 35.6897C31.0667 35.4565 31.1486 35.1718 31.1492 34.8789C31.1491 34.5662 31.0571 34.2631 30.8889 34.0209C30.7207 33.7788 30.4866 33.6124 30.2261 33.5498C29.9656 33.4873 29.6948 33.5325 29.4594 33.6778C29.2239 33.823 29.0384 34.0595 28.9341 34.3471C28.8999 34.3357 28.8655 34.3262 28.8314 34.3159C28.8376 34.2586 28.8461 34.2019 28.8461 34.1424C28.8461 33.7825 28.7246 33.4372 28.5082 33.1827C28.2918 32.9282 27.9983 32.7852 27.6923 32.7852C27.3863 32.7852 27.0928 32.9282 26.8764 33.1827C26.66 33.4372 26.5384 33.7825 26.5384 34.1424C26.5384 34.2019 26.547 34.2586 26.5532 34.3159C26.5191 34.3262 26.4847 34.3357 26.4505 34.3471C26.3466 34.0589 26.1611 33.8219 25.9256 33.6762C25.69 33.5305 25.4189 33.4851 25.1581 33.5477C24.8974 33.6103 24.663 33.777 24.4949 34.0196C24.3267 34.2623 24.235 34.5658 24.2354 34.8789C24.2354 35.1843 24.324 35.4628 24.4687 35.6897C23.6109 36.6756 23.0769 38.0495 23.0769 39.5715C23.0769 42.57 25.1432 45.0006 27.6923 45.0006C29.8475 45.0006 31.6523 43.2606 32.1602 40.9114C32.2089 40.9187 32.2571 40.9288 32.3077 40.9288C32.6137 40.9288 32.9072 40.7858 33.1236 40.5313C33.34 40.2767 33.4615 39.9315 33.4615 39.5715C33.4615 39.2115 33.34 38.8663 33.1236 38.6118C32.9072 38.3572 32.6137 38.2142 32.3077 38.2142Z" fill="#44D860"/>
<path fill-rule="evenodd" clip-rule="evenodd" d="M18.4614 28.7133H27.6922V23.2842H18.4614V28.7133Z" fill="#3ECC5F"/>
<path fill-rule="evenodd" clip-rule="evenodd" d="M30.0002 26.6762C30.1532 26.6762 30.2999 26.6047 30.4081 26.4774C30.5163 26.3501 30.5771 26.1775 30.5771 25.9975C30.5771 25.8175 30.5163 25.6449 30.4081 25.5177C30.2999 25.3904 30.1532 25.3189 30.0002 25.3189C29.975 25.3189 29.9508 25.324 29.9265 25.3276C29.9219 25.3072 29.918 25.2869 29.9132 25.2665C30.036 25.2059 30.1372 25.0971 30.1996 24.9587C30.262 24.8203 30.2818 24.6608 30.2556 24.5072C30.2295 24.3536 30.159 24.2153 30.056 24.1159C29.9531 24.0164 29.8241 23.9619 29.6909 23.9616C29.5596 23.9616 29.4398 24.0151 29.3429 24.1022C29.3302 24.0868 29.3173 24.0716 29.3042 24.0566C29.3766 23.9434 29.4209 23.8039 29.4209 23.6511C29.4209 23.4947 29.3749 23.3431 29.2908 23.222C29.2067 23.1008 29.0896 23.0176 28.9593 22.9863C28.829 22.9551 28.6936 22.9777 28.5758 23.0504C28.4581 23.1231 28.3653 23.2414 28.3132 23.3853C28.1112 23.3181 27.9024 23.2837 27.6925 23.283C26.4182 23.283 25.3848 24.4986 25.3848 25.9975C25.3848 27.4965 26.4182 28.7121 27.6925 28.7121C27.908 28.7121 28.1155 28.6746 28.3132 28.6097C28.3653 28.7536 28.4581 28.8719 28.5758 28.9446C28.6936 29.0173 28.829 29.04 28.9593 29.0087C29.0896 28.9775 29.2067 28.8942 29.2908 28.7731C29.3749 28.652 29.4209 28.5004 29.4209 28.344C29.4209 28.1911 29.3766 28.0516 29.3042 27.9384C29.3173 27.9235 29.3302 27.9083 29.3429 27.8928C29.4398 27.98 29.5596 28.0334 29.6909 28.0334C29.8243 28.0334 29.9535 27.9791 30.0566 27.8797C30.1597 27.7803 30.2304 27.6419 30.2566 27.4881C30.2828 27.3343 30.2629 27.1746 30.2002 27.0361C30.1376 26.8977 30.0362 26.789 29.9132 26.7286C29.918 26.7085 29.9219 26.6878 29.9265 26.6675C29.9508 26.671 29.975 26.6762 30.0002 26.6762Z" fill="#44D860"/>
<path fill-rule="evenodd" clip-rule="evenodd" d="M32.3076 6.65723C32.2707 6.65723 32.2315 6.6518 32.1946 6.64366C32.1574 6.63517 32.1211 6.62244 32.0861 6.60565C32.0515 6.58937 32.0192 6.56765 31.9866 6.54322C31.9566 6.51879 31.9269 6.48893 31.8989 6.45907C31.8738 6.42649 31.8484 6.39392 31.8276 6.35591C31.8069 6.31791 31.7884 6.27991 31.7743 6.23919C31.746 6.15632 31.7312 6.06791 31.7307 5.97859C31.7307 5.93516 31.7353 5.88901 31.7423 5.84558C31.7492 5.80215 31.7607 5.76143 31.7743 5.718C31.7884 5.67728 31.8069 5.63928 31.8276 5.60127C31.8484 5.56598 31.8738 5.53069 31.8989 5.49812C31.9269 5.46826 31.9566 5.4384 31.9866 5.41397C32.0192 5.38954 32.0515 5.36782 32.0861 5.35153C32.1205 5.33525 32.1576 5.32167 32.1946 5.31353C32.2684 5.29453 32.3446 5.29453 32.4207 5.31353C32.4574 5.32167 32.4946 5.33525 32.5292 5.35153C32.5636 5.36782 32.5961 5.38954 32.6284 5.41397C32.6584 5.4384 32.6882 5.46826 32.7161 5.49812C32.7415 5.53069 32.7669 5.56598 32.7876 5.60127C32.8084 5.63928 32.8269 5.67728 32.8407 5.718C32.8546 5.76143 32.8661 5.80215 32.873 5.84558C32.8797 5.88901 32.8846 5.93516 32.8846 5.97859C32.8846 6.15775 32.822 6.3342 32.7161 6.45907C32.6882 6.48893 32.6584 6.51879 32.6284 6.54322C32.5961 6.56765 32.5636 6.58937 32.5292 6.60565C32.4588 6.63941 32.3836 6.65692 32.3076 6.65723ZM36.923 6.31791C36.7707 6.31791 36.623 6.24462 36.5143 6.11975C36.4887 6.0872 36.4649 6.05275 36.443 6.0166C36.4223 5.97859 36.4038 5.94059 36.3897 5.89987C36.3614 5.817 36.3466 5.72859 36.3461 5.63928C36.3461 5.46012 36.4084 5.28638 36.5143 5.1588C36.5423 5.12894 36.572 5.09908 36.602 5.07465C36.6346 5.05022 36.6669 5.0285 36.7015 5.01222C36.7359 4.99593 36.773 4.98236 36.8099 4.97421C36.8838 4.95521 36.9623 4.95521 37.0361 4.97421C37.0728 4.98236 37.11 4.99593 37.1446 5.01222C37.179 5.0285 37.2115 5.05022 37.2438 5.07465C37.2738 5.09908 37.3036 5.12894 37.3315 5.1588C37.4374 5.28638 37.5 5.46012 37.5 5.63928C37.5 5.68271 37.4951 5.72886 37.4884 5.77229C37.4815 5.81572 37.47 5.85915 37.4561 5.89987C37.4399 5.94059 37.4238 5.97859 37.403 6.0166C37.3823 6.05189 37.3569 6.08718 37.3315 6.11975C37.3036 6.14961 37.2738 6.17947 37.2438 6.2039C37.2115 6.22833 37.179 6.25005 37.1446 6.26634C37.0742 6.30009 36.999 6.3176 36.923 6.31791Z" fill="black"/>
</svg>
