<svg width="45" height="45" viewBox="0 0 45 45" fill="none" xmlns="http://www.w3.org/2000/svg">
<g clip-path="url(#clip0_4202_1149)">
<path d="M9.37477 0C4.2082 0 0 4.2082 0 9.37477C0 13.8994 3.2277 17.6896 7.50023 18.5611V31.8748C7.50023 36.0127 10.9034 39.375 14.9998 39.375H15.0683C15.5261 42.5471 18.2675 45 21.5627 45C25.1761 45 28.125 42.0511 28.125 38.4377C28.125 34.8244 25.1761 31.8748 21.5627 31.8748C18.2679 31.8748 15.5264 34.3276 15.0683 37.4998H14.9998C11.9282 37.4998 9.37477 34.9854 9.37477 31.8748V22.4223C9.9815 23.0414 10.7058 23.533 11.5051 23.8684C12.3044 24.2037 13.1626 24.3761 14.0295 24.3752H15.0683C15.5264 27.5474 18.2675 30.0002 21.5627 30.0002C24.8576 30.0002 27.5987 27.5474 28.0561 24.3752H31.9433C32.4014 27.5474 35.1425 30.0002 38.4377 30.0002C42.0511 30.0002 45 27.0506 45 23.4373C45 19.8239 42.0511 16.875 38.4377 16.875C35.1425 16.875 32.4011 19.3279 31.9433 22.5H28.0564C27.5991 19.3279 24.8579 16.875 21.5627 16.875C18.2675 16.875 15.5261 19.3279 15.0683 22.5H14.0295C11.7679 22.5 9.88348 20.8867 9.46336 18.7481C14.5891 18.7003 18.7502 14.5118 18.7502 9.37477C18.7502 4.2082 14.5413 0 9.37477 0ZM9.37477 1.87523C10.3602 1.87329 11.3363 2.06594 12.2471 2.44213C13.1579 2.81831 13.9855 3.37064 14.6823 4.06741C15.3792 4.76419 15.9316 5.5917 16.3078 6.50247C16.6841 7.41323 16.8769 8.38933 16.875 9.37477C16.8769 10.3602 16.6841 11.3364 16.3079 12.2472C15.9316 13.158 15.3792 13.9855 14.6824 14.6824C13.9855 15.3792 13.158 15.9316 12.2472 16.3079C11.3364 16.6841 10.3602 16.8769 9.37477 16.875C8.38933 16.8769 7.41323 16.6841 6.50247 16.3078C5.5917 15.9316 4.76419 15.3792 4.06741 14.6823C3.37064 13.9855 2.81831 13.1579 2.44213 12.2471C2.06594 11.3363 1.87329 10.3602 1.87523 9.37477C1.87329 8.38937 2.06594 7.41328 2.44214 6.50252C2.81834 5.59176 3.37067 4.76424 4.06746 4.06746C4.76424 3.37067 5.59176 2.81834 6.50252 2.44214C7.41328 2.06594 8.38937 1.87329 9.37477 1.87523ZM7.54137 4.52637C6.56367 4.53129 5.625 5.31668 5.625 6.38648V12.3782C5.625 13.7995 7.28051 14.7206 8.48848 13.9718L13.2817 10.9993C14.4267 10.2892 14.4327 8.5377 13.2929 7.81945L8.49938 4.79953C8.21286 4.61844 7.8803 4.52362 7.54137 4.52637ZM7.50023 6.38648L12.2938 9.4057L7.50023 12.3782V6.38648ZM21.5627 18.7502C22.1788 18.7483 22.7892 18.8682 23.3587 19.103C23.9282 19.3379 24.4457 19.6831 24.8813 20.1187C25.3169 20.5543 25.6621 21.0718 25.897 21.6413C26.1318 22.2108 26.2517 22.8212 26.2498 23.4373C26.2517 24.0533 26.1317 24.6637 25.8969 25.2333C25.662 25.8028 25.3169 26.3203 24.8813 26.756C24.4457 27.1917 23.9282 27.5369 23.3587 27.7718C22.7892 28.0068 22.1788 28.1268 21.5627 28.125C20.9466 28.1269 20.3362 28.0069 19.7666 27.7719C19.197 27.537 18.6795 27.1918 18.2439 26.7561C17.8082 26.3205 17.463 25.803 17.2281 25.2334C16.9931 24.6638 16.8731 24.0534 16.875 23.4373C16.8732 22.8212 16.9932 22.2108 17.2282 21.6413C17.4631 21.0718 17.8083 20.5543 18.244 20.1187C18.6797 19.6831 19.1972 19.338 19.7667 19.1031C20.3363 18.8683 20.9467 18.7483 21.5627 18.7502ZM38.4377 18.7502C39.0538 18.7483 39.6642 18.8682 40.2337 19.103C40.8032 19.3379 41.3207 19.6831 41.7563 20.1187C42.1919 20.5543 42.5371 21.0718 42.772 21.6413C43.0068 22.2108 43.1267 22.8212 43.1248 23.4373C43.1267 24.0533 43.0067 24.6637 42.7719 25.2333C42.537 25.8028 42.1919 26.3203 41.7563 26.756C41.3207 27.1917 40.8032 27.5369 40.2337 27.7718C39.6642 28.0068 39.0538 28.1268 38.4377 28.125C37.8216 28.1269 37.2112 28.0069 36.6416 27.7719C36.072 27.537 35.5545 27.1918 35.1189 26.7561C34.6832 26.3205 34.338 25.803 34.1031 25.2334C33.8681 24.6638 33.7481 24.0534 33.75 23.4373C33.7482 22.8212 33.8682 22.2108 34.1032 21.6413C34.3381 21.0718 34.6833 20.5543 35.119 20.1187C35.5547 19.6831 36.0722 19.338 36.6417 19.1031C37.2113 18.8683 37.8217 18.7483 38.4377 18.7502ZM23.4724 21.1939C23.3493 21.1938 23.2273 21.218 23.1134 21.2651C22.9996 21.3121 22.8962 21.3811 22.809 21.4682L20.5942 23.6809L19.8584 22.9482C19.6823 22.7728 19.4437 22.6744 19.1951 22.6748C18.9464 22.6752 18.7082 22.7743 18.5326 22.9504C18.4457 23.0376 18.3769 23.1411 18.33 23.255C18.2831 23.3689 18.2591 23.4908 18.2593 23.614C18.2596 23.7371 18.2841 23.859 18.3315 23.9727C18.3789 24.0863 18.4482 24.1896 18.5354 24.2764L19.9325 25.6686C20.1083 25.8438 20.3464 25.9421 20.5946 25.9421C20.8428 25.942 21.0808 25.8436 21.2565 25.6683L24.1341 22.7946C24.2212 22.7076 24.2903 22.6043 24.3375 22.4905C24.3847 22.3768 24.409 22.2549 24.4091 22.1317C24.4092 22.0086 24.385 21.8866 24.3379 21.7728C24.2908 21.659 24.2218 21.5556 24.1348 21.4685C23.959 21.293 23.7208 21.194 23.4724 21.1939ZM40.3474 21.1939C40.2243 21.1938 40.1023 21.218 39.9884 21.2651C39.8746 21.3121 39.7712 21.3811 39.684 21.4682L37.4692 23.6809L36.7334 22.9482C36.5573 22.7728 36.3187 22.6744 36.0701 22.6748C35.8214 22.6752 35.5832 22.7743 35.4076 22.9504C35.3207 23.0376 35.2519 23.1411 35.205 23.255C35.1581 23.3689 35.1341 23.4908 35.1343 23.614C35.1346 23.7371 35.1591 23.859 35.2065 23.9727C35.2539 24.0863 35.3232 24.1896 35.4104 24.2764L36.8075 25.6686C36.9833 25.8438 37.2214 25.9421 37.4696 25.9421C37.7178 25.942 37.9558 25.8436 38.1315 25.6683L41.0091 22.7946C41.0962 22.7076 41.1653 22.6043 41.2125 22.4905C41.2597 22.3768 41.284 22.2549 41.2841 22.1317C41.2842 22.0086 41.26 21.8866 41.2129 21.7728C41.1658 21.659 41.0968 21.5556 41.0098 21.4685C40.834 21.293 40.5958 21.194 40.3474 21.1939ZM21.5627 33.75C22.1788 33.7482 22.7892 33.8682 23.3587 34.1032C23.9282 34.3381 24.4457 34.6833 24.8813 35.119C25.3169 35.5547 25.662 36.0722 25.8969 36.6417C26.1317 37.2113 26.2517 37.8217 26.2498 38.4377C26.2517 39.0538 26.1318 39.6642 25.897 40.2337C25.6621 40.8032 25.3169 41.3207 24.8813 41.7563C24.4457 42.1919 23.9282 42.5371 23.3587 42.772C22.7892 43.0068 22.1788 43.1267 21.5627 43.1248C20.9467 43.1267 20.3363 43.0067 19.7667 42.7719C19.1972 42.537 18.6797 42.1919 18.244 41.7563C17.8083 41.3207 17.4631 40.8032 17.2282 40.2337C16.9932 39.6642 16.8732 39.0538 16.875 38.4377C16.8731 37.8216 16.9931 37.2112 17.2281 36.6416C17.463 36.072 17.8082 35.5545 18.2439 35.1189C18.6795 34.6832 19.197 34.338 19.7666 34.1031C20.3362 33.8681 20.9466 33.7481 21.5627 33.75ZM19.6875 37.0315C18.9165 37.0315 18.2812 37.6668 18.2812 38.4377C18.2812 39.2094 18.9169 39.844 19.6875 39.844C20.4581 39.844 21.0938 39.2094 21.0938 38.4377C21.0938 37.6668 20.4585 37.0315 19.6875 37.0315ZM23.4373 37.0315C22.6663 37.0315 22.031 37.6668 22.031 38.4377C22.031 39.2094 22.6666 39.844 23.4373 39.844C24.2079 39.844 24.8435 39.2094 24.8435 38.4377C24.8435 37.6668 24.2082 37.0315 23.4373 37.0315ZM19.6875 37.9688C19.9512 37.9688 20.1565 38.1744 20.1565 38.4377C20.1565 38.7025 19.9515 38.906 19.6875 38.906C19.4238 38.906 19.2185 38.7021 19.2185 38.4377C19.2185 38.1741 19.4242 37.9688 19.6875 37.9688ZM23.4373 37.9688C23.7009 37.9688 23.9062 38.1744 23.9062 38.4377C23.9062 38.7025 23.7013 38.906 23.4373 38.906C23.1736 38.906 22.969 38.7021 22.969 38.4377C22.969 38.1741 23.1739 37.9688 23.4373 37.9688Z" fill="#2088FF"/>
<path d="M38.4377 31.875C35.139 31.875 32.395 34.3335 31.9419 37.5109C31.9109 37.5081 31.8798 37.5068 31.8487 37.507L30.8995 37.5387C30.6511 37.5468 30.4161 37.6533 30.2461 37.8346C30.0762 38.016 29.9852 38.2574 29.9932 38.5058C30.0013 38.7543 30.1078 38.9893 30.2893 39.1593C30.4707 39.3293 30.7122 39.4202 30.9607 39.4121L31.9099 39.3816C31.9213 39.3811 31.9326 39.3804 31.944 39.3795C32.4035 42.5495 35.1439 45.0002 38.4377 45.0002C42.051 45.0002 45 42.0513 45 38.438C45 34.8246 42.051 31.875 38.4377 31.875ZM38.4377 33.7502C39.0538 33.7484 39.6641 33.8684 40.2336 34.1034C40.8032 34.3383 41.3206 34.6836 41.7562 35.1192C42.1918 35.5549 42.537 36.0724 42.7718 36.642C43.0067 37.2115 43.1266 37.8219 43.1247 38.438C43.1267 39.054 43.0068 39.6644 42.7719 40.2339C42.5371 40.8035 42.1919 41.3209 41.7563 41.7565C41.3206 42.1922 40.8032 42.5373 40.2336 42.7722C39.6641 43.007 39.0537 43.127 38.4377 43.125C37.8216 43.1269 37.2112 43.007 36.6417 42.7721C36.0721 42.5372 35.5546 42.1921 35.119 41.7565C34.6833 41.3209 34.3381 40.8034 34.1031 40.2339C33.8682 39.6644 33.7481 39.054 33.75 38.438C33.7481 37.8218 33.8681 37.2114 34.103 36.6419C34.3379 36.0723 34.6832 35.5548 35.1188 35.1191C35.5545 34.6834 36.072 34.3382 36.6416 34.1033C37.2112 33.8684 37.8216 33.7484 38.4377 33.7502Z" fill="#79B8FF"/>
</g>
<defs>
<clipPath id="clip0_4202_1149">
<rect width="45" height="45" fill="white"/>
</clipPath>
</defs>
</svg>
