<svg width="45" height="45" viewBox="0 0 45 45" fill="none" xmlns="http://www.w3.org/2000/svg">
<mask id="mask0_4202_1159" style="mask-type:luminance" maskUnits="userSpaceOnUse" x="0" y="0" width="45" height="45">
<path d="M45 0H0V45H45V0Z" fill="white"/>
</mask>
<g mask="url(#mask0_4202_1159)">
<path fill-rule="evenodd" clip-rule="evenodd" d="M4.8621 11.7585H22.4751V9.82359H11.7088V4.9118C11.7088 4.9118 11.7088 0 22.4751 0C33.2414 0 33.2414 4.9118 33.2414 4.9118C33.2414 4.9118 33.3406 13.6439 33.2414 16.6207C33.2414 19.5976 31.2568 21.5821 28.28 21.5821H16.5214C12.6019 21.5821 9.67467 24.5094 9.67467 28.4289V33.3407H4.76287C4.76287 33.3407 -0.148926 33.3407 -0.148926 22.5744C-0.148926 11.8082 4.76287 11.8082 4.76287 11.8082L4.8621 11.7585ZM18.5556 4.9118C18.5556 6.00331 17.6625 6.84675 16.6206 6.84675C15.5787 6.84675 14.6857 5.95369 14.6857 4.9118C14.6857 3.8699 15.5787 2.97685 16.6206 2.97685C17.6625 2.97685 18.5556 3.8699 18.5556 4.9118Z" fill="#387EB8"/>
<path fill-rule="evenodd" clip-rule="evenodd" d="M40.0883 33.2413H22.4752V35.1763H33.2415V40.0881C33.2415 40.0881 33.2415 44.9999 22.4752 44.9999C11.709 44.9999 11.709 40.0881 11.709 40.0881V28.3295C11.709 25.4023 13.6439 23.4177 16.6208 23.4177H28.3793C32.2988 23.4177 35.2261 20.4905 35.2261 16.571V11.6592H40.1379C40.1379 11.6592 45.0497 11.6592 45.0497 22.4254C45.0497 33.1917 40.1379 33.1917 40.1379 33.1917L40.0883 33.2413ZM30.3143 40.0881C30.3143 41.1796 29.4212 42.023 28.3793 42.023C27.3374 42.023 26.4444 41.13 26.4444 40.0881C26.4444 39.0462 27.3374 38.1531 28.3793 38.1531C29.4212 38.1531 30.3143 39.0462 30.3143 40.0881Z" fill="#FFC331"/>
</g>
</svg>
