<svg width="49" height="45" viewBox="0 0 49 45" fill="none" xmlns="http://www.w3.org/2000/svg">
<g clip-path="url(#clip0_4202_1179)">
<path d="M22.5449 0L13.7662 13.1634V21.5081H8.38546V13.1634L0 0H6.04753L11.3797 8.47572L16.7555 0H22.5449Z" fill="white"/>
<path d="M31.5804 16.7749H21.8411L19.8603 21.5579H15.5476L24.6672 0.0498047H29.0785L37.828 21.5579H33.2195L31.5803 16.7749H31.5804ZM29.9626 12.4808L26.977 4.58798L23.6461 12.4808H29.9626Z" fill="#CB171E"/>
<path d="M8.38525 23.9199V44.9997H12.908V30.4591L17.6414 40.2327H21.2014L26.0964 30.1156V44.9954H30.4353V23.9199H24.5111L19.2545 33.4531L14.2482 23.9199H8.38525Z" fill="white"/>
<path d="M48.9539 40.4188H37.8281V23.915H33.22V44.9042H48.9539V40.419V40.4188Z" fill="white"/>
</g>
<defs>
<clipPath id="clip0_4202_1179">
<rect width="48.9539" height="45" fill="white"/>
</clipPath>
</defs>
</svg>
