<svg width="35" height="25" viewBox="0 0 35 25" fill="none" xmlns="http://www.w3.org/2000/svg">
<path d="M25.4195 14.795H8.31746C8.1526 14.795 8.01726 14.7602 7.91144 14.6904C7.80561 14.6206 7.7527 14.5314 7.7527 14.4227V3.90731C7.7527 3.64984 7.62087 3.4343 7.35723 3.2607C7.09389 3.0869 6.76693 3 6.37635 3C5.98577 3 5.65881 3.0869 5.39547 3.2607C5.13182 3.4343 5 3.64984 5 3.90731V14.4227C5 15.026 5.32405 15.5414 5.97216 15.9688C6.62057 16.396 7.40234 16.6097 8.31746 16.6097H25.4195L19.6315 20.4249C19.3587 20.605 19.2146 20.8187 19.1993 21.0661C19.184 21.3133 19.3188 21.5307 19.6035 21.7184C19.8883 21.9061 20.2152 22 20.5844 22C20.9539 22 21.281 21.9061 21.5657 21.7184L29.5307 16.4678C29.7026 16.3545 29.8237 16.235 29.894 16.1094C29.9647 15.9838 30 15.8481 30 15.7024C30 15.5566 29.9647 15.4209 29.894 15.2953C29.8237 15.1697 29.7026 15.0502 29.5307 14.9369L21.5373 9.66753C21.2645 9.48768 20.9452 9.39896 20.5794 9.40138C20.2136 9.4036 19.8883 9.49856 19.6035 9.68628C19.3377 9.87399 19.2001 10.0864 19.1906 10.3235C19.1811 10.5608 19.3188 10.7733 19.6035 10.9611L25.4195 14.795Z" fill="white"/>
</svg>
